<mxfile host="app.diagrams.net" modified="2024-03-19T20:31:09.903Z" agent="Mozilla/5.0 (X11; Linux x86_64) AppleWebKit/537.36 (KHTML, like Gecko) Chrome/122.0.0.0 Safari/537.36" version="24.0.7" etag="-VWHcitSSqRPrLYK-1y2" type="github">
  <diagram name="Page-1" id="mYSDgT7nEzw3p2JSqhui">
    <mxGraphModel>
      <root>
        <mxCell id="0" />
        <mxCell id="1" parent="0" />
      </root>
    </mxGraphModel>
  </diagram>
</mxfile>
